<?xml version="1.0" encoding="utf-8"?>
<!-- Generator: Adobe Illustrator 24.0.1, SVG Export Plug-In . SVG Version: 6.00 Build 0)  -->
<svg version="1.1" width="62" height="24" id="레이어_1" xmlns="http://www.w3.org/2000/svg" xmlns:xlink="http://www.w3.org/1999/xlink" x="0px"
	 y="0px" viewBox="0 0 62 24" style="enable-background:new 0 0 62 24;" xml:space="preserve">
<style type="text/css">
	.st0{fill:#FF8A24;}
</style>
<g>
	<g>
		<path class="st0" d="M20.7,8.8c-0.7,1-1.4,2.1-2.1,3.3c-0.7,1.2-1.4,2.3-2.1,3.2c-0.3,0.4-0.6,0.6-0.9,0.8
			c-0.3,0.1-0.7,0.2-1.1,0.2c-0.3,0-0.7-0.1-1-0.2c-0.4-0.1-0.7-0.4-0.9-0.8L8.5,8.7v12.7c0,0.8-0.3,1.4-0.8,1.8
			c-0.5,0.4-1.1,0.6-1.8,0.6c-0.3,0-0.7,0-1-0.1c-0.3-0.1-0.6-0.2-0.8-0.4c-0.2-0.2-0.4-0.4-0.6-0.7c-0.2-0.3-0.2-0.6-0.2-1.1V2.8
			C3.2,2,3.4,1.5,4,1.1c0.5-0.4,1.2-0.6,1.9-0.6c0.4,0,0.8,0,1.2,0.1c0.3,0.1,0.7,0.2,0.9,0.3C8.2,1,8.5,1.3,8.8,1.5
			c0.3,0.3,0.5,0.6,0.8,1l5,7.8l5.1-7.8c0.5-0.8,1-1.3,1.5-1.6c0.5-0.3,1.2-0.4,2.1-0.4c0.7,0,1.4,0.2,1.9,0.6C25.7,1.5,26,2,26,2.8
			v18.6c0,0.4-0.1,0.8-0.2,1.1c-0.2,0.3-0.4,0.5-0.6,0.7c-0.2,0.2-0.5,0.3-0.8,0.4c-0.3,0.1-0.6,0.1-1,0.1c-0.3,0-0.6,0-1-0.1
			c-0.3-0.1-0.6-0.2-0.8-0.4c-0.2-0.2-0.4-0.4-0.6-0.7c-0.2-0.3-0.2-0.6-0.2-1.1V8.8z"/>
		<path class="st0" d="M30.6,2.8c0-0.8,0.3-1.3,0.8-1.7c0.6-0.4,1.2-0.6,1.9-0.6c0.3,0,0.6,0,1,0.1c0.3,0.1,0.6,0.2,0.8,0.4
			c0.2,0.2,0.4,0.4,0.6,0.7C35.9,2,36,2.4,36,2.8v18.6c0,0.4-0.1,0.8-0.2,1.1c-0.1,0.3-0.3,0.5-0.6,0.7c-0.2,0.2-0.5,0.3-0.8,0.4
			c-0.3,0.1-0.6,0.1-1,0.1c-0.3,0-0.7,0-1-0.1c-0.3-0.1-0.6-0.2-0.9-0.4c-0.3-0.2-0.5-0.4-0.6-0.7c-0.2-0.3-0.2-0.6-0.2-1.1V2.8z"/>
		<path class="st0" d="M48.9,15.2l-5.2,7.6c-0.4,0.6-0.9,0.9-1.6,1c-0.7,0.1-1.3,0-1.9-0.4c-0.3-0.2-0.6-0.4-0.7-0.7
			c-0.2-0.3-0.3-0.5-0.4-0.8c-0.1-0.3-0.1-0.6,0-0.9c0.1-0.3,0.2-0.5,0.3-0.8l6.2-8.5l-6.1-8c-0.2-0.3-0.3-0.6-0.4-0.9
			c-0.1-0.3,0-0.6,0-0.9c0.1-0.3,0.2-0.5,0.4-0.8c0.2-0.2,0.4-0.4,0.6-0.6c0.7-0.5,1.3-0.7,2-0.6s1.2,0.4,1.6,1l5.2,7.3l5.3-7.3
			c0.4-0.6,0.9-0.8,1.6-0.9c0.6,0,1.3,0.1,1.9,0.6c0.2,0.2,0.4,0.4,0.6,0.6c0.2,0.2,0.3,0.5,0.3,0.8c0.1,0.3,0.1,0.6,0,0.8
			c-0.1,0.3-0.2,0.5-0.3,0.8l-6.1,8.1l6,8.3c0.4,0.6,0.6,1.2,0.5,1.8c-0.1,0.6-0.5,1.1-1.1,1.5c-0.6,0.4-1.3,0.5-2,0.4
			c-0.7-0.2-1.2-0.6-1.6-1.1L48.9,15.2z"/>
	</g>
</g>
</svg>
