<svg width="62" height="24" viewBox="0 0 62 24" fill="none" xmlns="http://www.w3.org/2000/svg">
<path fill-rule="evenodd" clip-rule="evenodd" d="M30.9384 4.13901C30.9469 2.50545 33.351 0.732946 36.305 0.172987C39.2633 -0.395392 41.6504 0.484544 41.6418 2.1139C41.6333 3.74325 39.2249 5.51996 36.2709 6.07992C33.3169 6.63988 30.9298 5.77258 30.9384 4.13901ZM19.9918 3.44432C21.0509 2.97962 22.2006 2.75107 23.3593 2.7749C25.5758 2.79735 27.2951 3.50186 28.5171 4.88842C29.739 6.27498 30.35 8.23974 30.35 10.7827V19.5441C30.3472 21.0458 30.0928 22.1601 29.587 22.887C29.3254 23.2521 28.9732 23.5446 28.5641 23.7363C28.155 23.928 27.7028 24.0125 27.2511 23.9817C26.8037 24.0135 26.3557 23.9302 25.9507 23.7398C25.5457 23.5494 25.1977 23.2585 24.9407 22.8954C24.4434 22.1601 24.1947 21.0373 24.1947 19.5273V12.6352C24.1947 11.0381 23.9674 9.86628 23.5127 9.11967C23.296 8.75783 22.9823 8.46216 22.6062 8.26528C22.2301 8.0684 21.8062 7.97797 21.3814 8.00397C20.9264 7.97019 20.4704 8.05371 20.0579 8.24633C19.6454 8.43896 19.2907 8.73409 19.0284 9.10283C18.534 9.83119 18.2825 10.9848 18.2825 12.5594V19.5483C18.2825 21.0472 18.031 22.1629 17.5195 22.8912C17.2374 23.2374 16.8804 23.5166 16.4747 23.7085C16.069 23.9004 15.6248 24 15.175 24C14.7252 24 14.281 23.9004 13.8753 23.7085C13.4696 23.5166 13.1126 23.2374 12.8305 22.8912C12.3219 22.1615 12.0675 21.0472 12.0675 19.5483V12.6562C12.0675 11.0437 11.8246 9.86909 11.3983 9.1323C11.1854 8.77339 10.8758 8.47986 10.5041 8.28437C10.1323 8.08888 9.7129 7.9991 9.29255 8.02502C8.83731 7.98541 8.3795 8.06404 7.96452 8.2531C7.54953 8.44217 7.1918 8.73509 6.92679 9.10283C6.42948 9.8326 6.18083 10.9848 6.18083 12.5594V19.5147C6.18083 21.0163 5.92507 22.1306 5.41355 22.8575C5.15269 23.2223 4.80116 23.5146 4.39279 23.7063C3.98443 23.898 3.53298 23.9827 3.08189 23.9522C2.63183 23.9841 2.18109 23.9 1.77384 23.7081C1.36659 23.5162 1.0168 23.2231 0.758749 22.8575C0.252916 22.1278 0 21.0135 0 19.5147V7.25455C0 5.75572 0.255758 4.633 0.767275 3.88639C1.02543 3.51574 1.37719 3.21817 1.78769 3.0232C2.19818 2.82823 2.65315 2.74264 3.10747 2.7749C3.69131 2.76919 4.26228 2.94441 4.74006 3.27591C5.29064 3.67561 5.74001 4.19584 6.05295 4.7958C6.6474 4.13084 7.38614 3.60699 8.21411 3.26328C9.09667 2.92383 10.0379 2.75793 10.9848 2.7749C12.1977 2.75238 13.4005 2.99687 14.5058 3.49063C15.5482 3.98884 16.4534 4.72835 17.1443 5.64626C17.9342 4.73087 18.9026 3.98199 19.9918 3.44432ZM61.6931 19.7337C61.3911 19.1441 61.0002 18.6032 60.5336 18.1296L55.7168 12.749L59.7877 8.44613C60.1854 8.02535 60.5264 7.55552 60.8022 7.04834C61.0141 6.67283 61.1325 6.25286 61.1474 5.82318C61.1497 5.42382 61.0674 5.0284 60.9059 4.66227C60.7444 4.29614 60.5073 3.96737 60.2097 3.69703C59.916 3.40779 59.5667 3.17946 59.1824 3.02546C58.7981 2.87146 58.3865 2.79489 57.9718 2.80025C57.5175 2.81756 57.0761 2.95418 56.693 3.19601C56.2208 3.46623 55.8021 3.81854 55.4568 4.23593L52.0169 8.40824L48.27 4.12225C47.9383 3.72111 47.528 3.39031 47.0637 3.1497C46.6417 2.94112 46.1757 2.83434 45.7039 2.83814C45.3206 2.84056 44.9423 2.92412 44.5945 3.08318C44.2467 3.24223 43.9375 3.47308 43.6877 3.76018C43.1322 4.33615 42.8263 5.10355 42.8351 5.89896C42.8411 6.33729 42.9459 6.76879 43.1421 7.16202C43.3595 7.61198 43.6472 8.02541 43.9946 8.38719L48.3169 12.7153L43.1719 18.2854C42.7544 18.7108 42.4026 19.1945 42.1275 19.7211C41.9609 20.1214 41.8797 20.5514 41.8888 20.9841C41.8854 21.3755 41.9618 21.7636 42.1134 22.1253C42.265 22.4869 42.4887 22.8147 42.7712 23.0892C43.0376 23.3712 43.3605 23.5954 43.7193 23.7476C44.0782 23.8998 44.4651 23.9767 44.8556 23.9734C45.3302 23.9758 45.7962 23.8491 46.2026 23.6071C46.7106 23.2763 47.1599 22.8653 47.5326 22.3903L51.9188 17.2034L56.3349 22.3819C56.7339 22.8625 57.2089 23.2762 57.7416 23.6071C58.176 23.848 58.6671 23.9715 59.1653 23.9649C59.5367 23.9673 59.9045 23.8938 60.2456 23.7488C60.5868 23.6039 60.8938 23.3908 61.1474 23.1229C61.4184 22.8668 61.6337 22.559 61.7803 22.218C61.9268 21.8771 62.0016 21.5103 62 21.1399C61.9942 20.6556 61.8898 20.1774 61.6931 19.7337ZM33.7002 7.80609C34.9636 7.7536 36.2153 7.54426 37.4258 7.18298C38.2388 6.95676 39.0326 6.66819 39.8001 6.31989C39.8384 6.61878 39.8384 6.9303 39.8384 7.26708V7.26718V19.502C39.8384 21.0233 39.5898 22.146 39.0925 22.8702C38.8394 23.2331 38.4945 23.5243 38.0922 23.7148C37.6899 23.9054 37.2442 23.9887 36.7992 23.9564C36.348 23.9873 35.8965 23.9029 35.488 23.7111C35.0796 23.5194 34.7281 23.2268 34.4675 22.8618C33.956 22.132 33.7002 21.0177 33.7002 19.5189V7.80609Z" fill="url(#paint0_linear_220_579)"/>
<defs>
<linearGradient id="paint0_linear_220_579" x1="0" y1="0" x2="47.3102" y2="40.9651" gradientUnits="userSpaceOnUse">
<stop stop-color="#F3C754"/>
<stop offset="1" stop-color="#E58F35"/>
</linearGradient>
</defs>
</svg>
