<?xml version="1.0" encoding="utf-8"?>
<!-- Generator: Adobe Illustrator 24.0.1, SVG Export Plug-In . SVG Version: 6.00 Build 0)  -->
<svg version="1.1" id="레이어_1" xmlns="http://www.w3.org/2000/svg" xmlns:xlink="http://www.w3.org/1999/xlink" x="0px"
	 y="0px" viewBox="0 0 16.9 17" style="enable-background:new 0 0 16.9 17;" xml:space="preserve">
<style type="text/css">
	.st0{fill:#FF8A23;}
	.st1{fill:#FFFFFF;}
</style>
<g>
	<circle class="st0" cx="8.4" cy="8.5" r="8.4"/>
	<path class="st1" d="M14.2,8.6c-0.1-0.8-0.6-1.6-0.7-1.7s-0.1-0.1,0-0.2s0.1-0.3,0.1-0.6c0-0.3,0-1-0.1-1.4
		c-0.1-0.4-0.4-0.8-0.6-0.9c-0.3-0.1-0.7-0.1-1.1,0.1c-0.5,0.1-1.3,0.6-1.4,0.6c0,0-0.3-0.1-0.6-0.2C9.3,4.3,8.9,4.3,8.4,4.3v0
		c0,0,0,0,0,0s0,0,0,0v0c-0.5,0-0.9,0-1.2,0.1C6.9,4.5,6.6,4.6,6.6,4.6c0,0-0.9-0.5-1.4-0.6C4.7,3.8,4.3,3.8,4.1,3.9
		C3.8,4,3.5,4.4,3.4,4.8C3.3,5.2,3.3,5.9,3.3,6.2c0,0.3,0.1,0.5,0.1,0.6s0,0.1,0,0.2C3.3,7,2.8,7.8,2.7,8.6
		c-0.1,0.8-0.1,1.5,0.1,2.1c0.1,0.6,0.5,1.1,1.2,1.6c0.6,0.5,1.5,0.7,2.3,0.9s2,0.2,2.2,0.2c0,0,0,0,0,0c0,0,0,0,0,0
		c0.2,0,1.4,0,2.2-0.2c0.8-0.2,1.7-0.4,2.3-0.9s1-1,1.2-1.6C14.3,10.1,14.3,9.4,14.2,8.6z"/>
	<path class="st0" d="M8.4,7.7c-0.7,0-1.6-0.1-2.2-0.1C5.6,7.5,5.3,7.4,5.1,7.4c-0.1,0-0.3,0-0.3,0.1s0.1,0.3,0.3,0.3S5.8,8,6.2,8
		c0.4,0,1.3,0.1,1.3,0.1L8,8.6c0,0-0.6,0.5-0.7,0.6S7.1,9.5,7.2,9.6c0.1,0.1,0.2,0.1,0.4,0c0.2-0.1,0.6-0.5,0.7-0.6S8.4,9,8.4,9V7.7
		z"/>
	<path class="st0" d="M4.9,8.8L3.5,8.6c-0.1,0-0.3,0.1-0.3,0.2c0,0.1,0.1,0.3,0.2,0.3l1.5,0.3c0.1,0,0.3-0.1,0.3-0.2S5,8.9,4.9,8.8z
		"/>
	<path class="st0" d="M4.8,9.8l-1.4,0.6c-0.1,0.1-0.2,0.2-0.1,0.3c0.1,0.1,0.2,0.2,0.3,0.1L5,10.2c0.1-0.1,0.2-0.2,0.1-0.3
		S4.9,9.7,4.8,9.8z"/>
	<path class="st0" d="M8.4,7.7c0.7,0,1.6-0.1,2.2-0.1c0.6-0.1,0.9-0.1,1.1-0.1c0.1,0,0.3,0,0.3,0.1c0,0.2-0.1,0.3-0.3,0.3
		S11.1,8,10.7,8c-0.4,0-1.3,0.1-1.3,0.1L8.8,8.6c0,0,0.6,0.5,0.7,0.6s0.2,0.3,0.1,0.4c-0.1,0.1-0.2,0.1-0.4,0
		C9.1,9.6,8.7,9.2,8.6,9.1S8.4,9,8.4,9V7.7z"/>
	<path class="st0" d="M11.9,8.8l1.5-0.3c0.1,0,0.3,0.1,0.3,0.2c0,0.1-0.1,0.3-0.2,0.3L12,9.3c-0.1,0-0.3-0.1-0.3-0.2
		S11.8,8.9,11.9,8.8z"/>
	<path class="st0" d="M12.1,9.8l1.4,0.6c0.1,0.1,0.2,0.2,0.1,0.3c-0.1,0.1-0.2,0.2-0.3,0.1l-1.4-0.6c-0.1-0.1-0.2-0.2-0.1-0.3
		S12,9.7,12.1,9.8z"/>
</g>
</svg>
