<svg width="24" height="24" viewBox="0 0 24 24" fill="none" xmlns="http://www.w3.org/2000/svg">
<path d="M22.1 24H1.9C0.9 24 0 23.1 0 22.1V1.9C0 0.9 0.9 0 1.9 0H22C23.1 0 24 0.9 24 1.9V22C24 23.1 23.1 24 22.1 24Z" fill="#747373"/>
<path d="M11.8992 3.7002C6.79922 3.7002 2.69922 7.0002 2.69922 11.0002C2.69922 13.6002 4.49922 15.9002 7.09922 17.2002C6.89922 17.9002 6.39922 19.8002 6.29922 20.2002C6.19922 20.7002 6.49922 20.7002 6.69922 20.6002C6.89922 20.5002 9.19922 18.9002 10.2992 18.2002C10.8992 18.3002 11.3992 18.3002 11.9992 18.3002C17.0992 18.3002 21.2992 15.0002 21.2992 11.0002C21.1992 7.0002 16.9992 3.7002 11.8992 3.7002Z" fill="#161616"/>
<path d="M8.2 8.89941H5.5C5.2 8.89941 5 9.09941 5 9.39941C5 9.69941 5.2 9.89941 5.5 9.89941H6.4V13.0994C6.4 13.1994 6.4 13.2994 6.5 13.3994C6.6 13.4994 6.7 13.4994 6.8 13.4994H6.9C7 13.4994 7.1 13.4994 7.2 13.3994C7.3 13.2994 7.3 13.1994 7.3 13.0994V9.79941H8.1C8.4 9.79941 8.6 9.59941 8.6 9.29941C8.7 9.09941 8.5 8.89941 8.2 8.89941Z" fill="#747373"/>
<path d="M14.6984 12.5998H13.3984V9.2998C13.3984 8.9998 13.1984 8.7998 12.8984 8.7998C12.5984 8.7998 12.3984 8.9998 12.3984 9.2998V12.8998V12.9998V13.0998C12.3984 13.2998 12.5984 13.4998 12.7984 13.4998H14.5984C14.7984 13.4998 14.9984 13.2998 14.9984 13.0998C15.0984 12.7998 14.8984 12.5998 14.6984 12.5998Z" fill="#747373"/>
<path d="M18.6984 12.7998L17.2984 10.9998L18.5984 9.6998C18.7984 9.4998 18.7984 9.1998 18.5984 9.0998C18.3984 8.8998 18.0984 8.8998 17.9984 9.0998L16.3984 10.6998V9.2998C16.3984 8.9998 16.1984 8.7998 15.8984 8.7998C15.5984 8.7998 15.3984 8.9998 15.3984 9.2998V12.9998C15.3984 13.2998 15.5984 13.4998 15.8984 13.4998C16.1984 13.4998 16.3984 13.2998 16.3984 12.9998V11.8998L16.6984 11.5998L17.9984 13.2998C18.0984 13.4998 18.3984 13.4998 18.5984 13.3998C18.7984 13.2998 18.8984 12.9998 18.6984 12.7998Z" fill="#747373"/>
<path d="M12.1 12.8998L10.7 9.1998C10.6 8.9998 10.4 8.7998 10.1 8.7998C9.8 8.7998 9.5 8.9998 9.4 9.2998C9.4 9.2998 9.4 9.2998 9.4 9.3998L8.1 12.9998C8 13.1998 8.1 13.4998 8.4 13.5998C8.6 13.6998 8.9 13.5998 9 13.2998L9.2 12.5998H11L11.2 13.2998C11.3 13.4998 11.5 13.6998 11.8 13.5998C12 13.3998 12.2 13.0998 12.1 12.8998ZM9.4 11.6998L10 9.8998L10.6 11.6998H9.4Z" fill="#747373"/>
</svg>
