<svg width="52" height="50" viewBox="0 0 52 50" fill="none" xmlns="http://www.w3.org/2000/svg">
<path d="M36 9.50048C35.803 9.50039 35.6079 9.53911 35.4258 9.61444C35.2438 9.68976 35.0783 9.80021 34.939 9.93948L26 18.8795L17.061 9.93948C16.7796 9.65809 16.3979 9.5 16 9.5C15.602 9.5 15.2204 9.65809 14.939 9.93948C14.6576 10.2209 14.4995 10.6025 14.4995 11.0005C14.4995 11.3984 14.6576 11.7801 14.939 12.0615L24.939 22.0615C25.0783 22.2009 25.2437 22.3114 25.4257 22.3869C25.6078 22.4623 25.8029 22.5012 26 22.5012C26.1971 22.5012 26.3922 22.4623 26.5742 22.3869C26.7563 22.3114 26.9217 22.2009 27.061 22.0615L37.061 12.0615C37.2709 11.8517 37.4139 11.5844 37.4718 11.2933C37.5297 11.0022 37.5 10.7005 37.3865 10.4264C37.2729 10.1522 37.0805 9.91787 36.8337 9.75306C36.5869 9.58825 36.2968 9.50035 36 9.50048Z" fill="white"/>
<path d="M36 1.50048C35.803 1.50039 35.6079 1.53911 35.4258 1.61444C35.2438 1.68976 35.0783 1.80021 34.939 1.93948L26 10.8795L17.061 1.93948C16.7796 1.65809 16.3979 1.5 16 1.5C15.602 1.5 15.2204 1.65809 14.939 1.93948C14.6576 2.22088 14.4995 2.60253 14.4995 3.00048C14.4995 3.39843 14.6576 3.78009 14.939 4.06148L24.939 14.0615C25.0783 14.2009 25.2437 14.3114 25.4257 14.3869C25.6078 14.4623 25.8029 14.5012 26 14.5012C26.1971 14.5012 26.3922 14.4623 26.5742 14.3869C26.7563 14.3114 26.9217 14.2009 27.061 14.0615L37.061 4.06148C37.2709 3.8517 37.4139 3.58436 37.4718 3.2933C37.5297 3.00224 37.5 2.70054 37.3865 2.42636C37.2729 2.15219 37.0805 1.91787 36.8337 1.75306C36.5869 1.58825 36.2968 1.50035 36 1.50048Z" fill="white"/>
<path d="M6.24805 44.4365C6.24805 44.2314 6.21615 44.0492 6.15234 43.8896C6.0931 43.7301 5.986 43.5843 5.83105 43.4521C5.67611 43.32 5.45736 43.1924 5.1748 43.0693C4.89681 42.9417 4.54134 42.8118 4.1084 42.6797C3.63444 42.5339 3.19694 42.3721 2.7959 42.1943C2.39941 42.012 2.05306 41.8024 1.75684 41.5654C1.46061 41.3239 1.23047 41.0482 1.06641 40.7383C0.902344 40.4238 0.820312 40.0615 0.820312 39.6514C0.820312 39.2458 0.904622 38.8766 1.07324 38.5439C1.24642 38.2113 1.49023 37.9242 1.80469 37.6826C2.1237 37.4365 2.49967 37.2474 2.93262 37.1152C3.36556 36.9785 3.84408 36.9102 4.36816 36.9102C5.10645 36.9102 5.74219 37.0469 6.27539 37.3203C6.81315 37.5938 7.22559 37.9606 7.5127 38.4209C7.80436 38.8812 7.9502 39.3893 7.9502 39.9453H6.24805C6.24805 39.6172 6.17741 39.3278 6.03613 39.0771C5.89941 38.8219 5.68978 38.6214 5.40723 38.4756C5.12923 38.3298 4.77604 38.2568 4.34766 38.2568C3.94206 38.2568 3.60482 38.3184 3.33594 38.4414C3.06706 38.5645 2.86654 38.7308 2.73438 38.9404C2.60221 39.1501 2.53613 39.387 2.53613 39.6514C2.53613 39.8382 2.57943 40.0091 2.66602 40.1641C2.7526 40.3145 2.88477 40.4557 3.0625 40.5879C3.24023 40.7155 3.46354 40.8363 3.73242 40.9502C4.0013 41.0641 4.31803 41.1735 4.68262 41.2783C5.23405 41.4424 5.71484 41.6247 6.125 41.8252C6.53516 42.0212 6.87695 42.2445 7.15039 42.4951C7.42383 42.7458 7.62891 43.0306 7.76562 43.3496C7.90234 43.6641 7.9707 44.0218 7.9707 44.4229C7.9707 44.8421 7.88639 45.2204 7.71777 45.5576C7.54915 45.8903 7.30762 46.1751 6.99316 46.4121C6.68327 46.6445 6.30957 46.8245 5.87207 46.9521C5.43913 47.0752 4.95605 47.1367 4.42285 47.1367C3.94434 47.1367 3.47266 47.0729 3.00781 46.9453C2.54753 46.8177 2.12826 46.624 1.75 46.3643C1.37174 46.0999 1.07096 45.7718 0.847656 45.3799C0.624349 44.9834 0.512695 44.5208 0.512695 43.9922H2.22852C2.22852 44.3158 2.2832 44.5915 2.39258 44.8193C2.50651 45.0472 2.66374 45.234 2.86426 45.3799C3.06478 45.5212 3.2972 45.626 3.56152 45.6943C3.8304 45.7627 4.11751 45.7969 4.42285 45.7969C4.82389 45.7969 5.15885 45.7399 5.42773 45.626C5.70117 45.512 5.90625 45.3525 6.04297 45.1475C6.17969 44.9424 6.24805 44.7054 6.24805 44.4365ZM15.3672 43.7598H17.0762C17.0215 44.4115 16.8392 44.9925 16.5293 45.5029C16.2194 46.0088 15.7842 46.4076 15.2236 46.6992C14.6631 46.9909 13.9818 47.1367 13.1797 47.1367C12.5645 47.1367 12.0107 47.0273 11.5186 46.8086C11.0264 46.5853 10.6048 46.2708 10.2539 45.8652C9.90299 45.4551 9.63411 44.9606 9.44727 44.3818C9.26497 43.8031 9.17383 43.1559 9.17383 42.4404V41.6133C9.17383 40.8978 9.26725 40.2507 9.4541 39.6719C9.64551 39.0931 9.91895 38.5986 10.2744 38.1885C10.6299 37.7738 11.056 37.457 11.5527 37.2383C12.054 37.0195 12.6169 36.9102 13.2412 36.9102C14.0342 36.9102 14.7041 37.056 15.251 37.3477C15.7979 37.6393 16.2217 38.0426 16.5225 38.5576C16.8278 39.0726 17.0146 39.6628 17.083 40.3281H15.374C15.3285 39.8997 15.2282 39.5329 15.0732 39.2275C14.9229 38.9222 14.6995 38.6898 14.4033 38.5303C14.1071 38.3662 13.7197 38.2842 13.2412 38.2842C12.8493 38.2842 12.5075 38.3571 12.2158 38.5029C11.9242 38.6488 11.6803 38.863 11.4844 39.1455C11.2884 39.4281 11.1403 39.7767 11.04 40.1914C10.9443 40.6016 10.8965 41.071 10.8965 41.5996V42.4404C10.8965 42.9417 10.9398 43.3975 11.0264 43.8076C11.1175 44.2132 11.2542 44.5618 11.4365 44.8535C11.6234 45.1452 11.8604 45.3708 12.1475 45.5303C12.4346 45.6898 12.7786 45.7695 13.1797 45.7695C13.6673 45.7695 14.0615 45.6921 14.3623 45.5371C14.6676 45.3822 14.8978 45.1566 15.0527 44.8604C15.2122 44.5596 15.3171 44.1927 15.3672 43.7598ZM18.6348 37.0469H22.1553C22.9118 37.0469 23.5566 37.1608 24.0898 37.3887C24.623 37.6165 25.0309 37.9538 25.3135 38.4004C25.6006 38.8424 25.7441 39.3893 25.7441 40.041C25.7441 40.5378 25.653 40.9753 25.4707 41.3535C25.2884 41.7318 25.0309 42.0508 24.6982 42.3105C24.3656 42.5658 23.9691 42.764 23.5088 42.9053L22.9893 43.1582H19.8242L19.8105 41.7979H22.1826C22.5928 41.7979 22.9346 41.7249 23.208 41.5791C23.4814 41.4333 23.6865 41.235 23.8232 40.9844C23.9645 40.7292 24.0352 40.4421 24.0352 40.123C24.0352 39.7767 23.9668 39.4759 23.8301 39.2207C23.6979 38.9609 23.4928 38.7627 23.2148 38.626C22.9368 38.4847 22.5837 38.4141 22.1553 38.4141H20.3506V47H18.6348V37.0469ZM24.3154 47L21.9775 42.5293L23.7754 42.5225L26.1475 46.9111V47H24.3154ZM35.3896 41.75V42.2969C35.3896 43.0488 35.2917 43.7233 35.0957 44.3203C34.8997 44.9173 34.6195 45.4255 34.2549 45.8447C33.8949 46.264 33.4619 46.5853 32.9561 46.8086C32.4502 47.0273 31.8896 47.1367 31.2744 47.1367C30.6637 47.1367 30.1055 47.0273 29.5996 46.8086C29.0983 46.5853 28.6631 46.264 28.2939 45.8447C27.9248 45.4255 27.6377 44.9173 27.4326 44.3203C27.2321 43.7233 27.1318 43.0488 27.1318 42.2969V41.75C27.1318 40.998 27.2321 40.3258 27.4326 39.7334C27.6331 39.1364 27.9157 38.6283 28.2803 38.209C28.6494 37.7852 29.0846 37.4639 29.5859 37.2451C30.0918 37.0218 30.6501 36.9102 31.2607 36.9102C31.876 36.9102 32.4365 37.0218 32.9424 37.2451C33.4482 37.4639 33.8835 37.7852 34.248 38.209C34.6126 38.6283 34.8929 39.1364 35.0889 39.7334C35.2894 40.3258 35.3896 40.998 35.3896 41.75ZM33.6738 42.2969V41.7363C33.6738 41.1803 33.6191 40.6904 33.5098 40.2666C33.4049 39.8382 33.2477 39.4805 33.0381 39.1934C32.833 38.9017 32.5801 38.6829 32.2793 38.5371C31.9785 38.3867 31.639 38.3115 31.2607 38.3115C30.8825 38.3115 30.5452 38.3867 30.249 38.5371C29.9528 38.6829 29.6999 38.9017 29.4902 39.1934C29.2852 39.4805 29.1279 39.8382 29.0186 40.2666C28.9092 40.6904 28.8545 41.1803 28.8545 41.7363V42.2969C28.8545 42.8529 28.9092 43.3451 29.0186 43.7734C29.1279 44.2018 29.2874 44.5641 29.4971 44.8604C29.7113 45.152 29.9665 45.373 30.2627 45.5234C30.5589 45.6693 30.8962 45.7422 31.2744 45.7422C31.6572 45.7422 31.9967 45.6693 32.293 45.5234C32.5892 45.373 32.8398 45.152 33.0449 44.8604C33.25 44.5641 33.4049 44.2018 33.5098 43.7734C33.6191 43.3451 33.6738 42.8529 33.6738 42.2969ZM43.3398 45.6396V47H38.3428V45.6396H43.3398ZM38.8213 37.0469V47H37.1055V37.0469H38.8213ZM50.9004 45.6396V47H45.9033V45.6396H50.9004ZM46.3818 37.0469V47H44.666V37.0469H46.3818Z" fill="white"/>
</svg>
